<?xml version="1.0" encoding="UTF-8"?>
<svg width="186px" height="60px" viewBox="0 0 186 60" version="1.1" xmlns="http://www.w3.org/2000/svg" xmlns:xlink="http://www.w3.org/1999/xlink">
    <!-- Generator: Sketch 50.2 (55047) - http://www.bohemiancoding.com/sketch -->
    <title>pt-verified-neutral-md</title>
    <desc>Created with Sketch.</desc>
    <defs>
        <rect id="path-1" x="0" y="0" width="180" height="54.0549846" rx="10"></rect>
        <filter x="-2.8%" y="-7.4%" width="105.6%" height="118.5%" filterUnits="objectBoundingBox" id="filter-2">
            <feOffset dx="0" dy="1" in="SourceAlpha" result="shadowOffsetOuter1"></feOffset>
            <feGaussianBlur stdDeviation="1.5" in="shadowOffsetOuter1" result="shadowBlurOuter1"></feGaussianBlur>
            <feComposite in="shadowBlurOuter1" in2="SourceAlpha" operator="out" result="shadowBlurOuter1"></feComposite>
            <feColorMatrix values="0 0 0 0 0   0 0 0 0 0   0 0 0 0 0  0 0 0 0.1 0" type="matrix" in="shadowBlurOuter1"></feColorMatrix>
        </filter>
        <polygon id="path-3" points="0.00900767817 0.0288961909 0.00900767817 21.7826035 15.9324809 21.7826035 15.9324809 0.0288961909 0.00900767817 0.0288961909"></polygon>
    </defs>
    <g id="pt-verified-neutral-md" stroke="none" stroke-width="1" fill="none" fill-rule="evenodd">
        <g id="Group" transform="translate(3.000000, 1.000000)">
            <g id="Background" transform="translate(0.164489, 0.787292)">
                <g id="pop_up">
                    <use fill="black" fill-opacity="1" filter="url(#filter-2)" xlink:href="#path-1"></use>
                    <rect stroke="#E1E1E1" stroke-width="0.692041522" stroke-linejoin="square" fill="#F5F7F9" fill-rule="evenodd" x="0.346020761" y="0.346020761" width="179.307958" height="53.3629431" rx="10"></rect>
                </g>
            </g>
            <path d="M51.8420243,16 L49.2220243,9.33 L50.5520243,9.33 L52.5720243,14.73 L54.5920243,9.33 L55.9220243,9.33 L53.3020243,16 L51.8420243,16 Z M58.0805956,16 L58.0805956,9.33 L62.6505956,9.33 L62.6505956,10.36 L59.2505956,10.36 L59.2505956,12.09 L62.5805956,12.09 L62.5805956,13.12 L59.2505956,13.12 L59.2505956,14.97 L62.6505956,14.97 L62.6505956,16 L58.0805956,16 Z M69.089167,16 L67.609167,13.51 L66.449167,13.51 L66.449167,16 L65.279167,16 L65.279167,9.33 L68.209167,9.33 C69.529167,9.33 70.389167,10.19 70.389167,11.42 C70.389167,12.61 69.609167,13.25 68.809167,13.38 L70.439167,16 L69.089167,16 Z M69.189167,11.42 C69.189167,10.78 68.709167,10.36 68.049167,10.36 L66.449167,10.36 L66.449167,12.48 L68.049167,12.48 C68.709167,12.48 69.189167,12.06 69.189167,11.42 Z M72.9877383,16 L72.9877383,9.33 L74.1577383,9.33 L74.1577383,16 L72.9877383,16 Z M77.0063097,16 L77.0063097,9.33 L81.5763097,9.33 L81.5763097,10.36 L78.1763097,10.36 L78.1763097,12.09 L81.5063097,12.09 L81.5063097,13.12 L78.1763097,13.12 L78.1763097,16 L77.0063097,16 Z M84.054881,16 L84.054881,9.33 L85.224881,9.33 L85.224881,16 L84.054881,16 Z M88.0734524,16 L88.0734524,9.33 L92.6434524,9.33 L92.6434524,10.36 L89.2434524,10.36 L89.2434524,12.09 L92.5734524,12.09 L92.5734524,13.12 L89.2434524,13.12 L89.2434524,14.97 L92.6434524,14.97 L92.6434524,16 L88.0734524,16 Z M95.2720237,16 L95.2720237,9.33 L97.7520237,9.33 C99.8320237,9.33 101.242024,10.71 101.242024,12.67 C101.242024,14.63 99.8320237,16 97.7520237,16 L95.2720237,16 Z M96.4420237,14.97 L97.7520237,14.97 C99.2020237,14.97 100.042024,13.93 100.042024,12.67 C100.042024,11.38 99.2420237,10.36 97.7520237,10.36 L96.4420237,10.36 L96.4420237,14.97 Z M107.799166,16 L107.799166,9.33 L111.079166,9.33 C112.299166,9.33 112.979166,10.09 112.979166,11.03 C112.979166,11.87 112.439166,12.43 111.819166,12.56 C112.529166,12.67 113.109166,13.38 113.109166,14.2 C113.109166,15.23 112.419166,16 111.169166,16 L107.799166,16 Z M108.969166,12.09 L110.839166,12.09 C111.439166,12.09 111.779166,11.73 111.779166,11.23 C111.779166,10.73 111.439166,10.36 110.839166,10.36 L108.969166,10.36 L108.969166,12.09 Z M108.969166,14.97 L110.889166,14.97 C111.529166,14.97 111.909166,14.62 111.909166,14.04 C111.909166,13.54 111.559166,13.12 110.889166,13.12 L108.969166,13.12 L108.969166,14.97 Z M117.297738,16 L117.297738,13.23 L114.707738,9.33 L116.047738,9.33 L117.887738,12.19 L119.707738,9.33 L121.047738,9.33 L118.467738,13.23 L118.467738,16 L117.297738,16 Z" id="Verified-By" fill="#8A8D96"></path>
            <g id="Group-2" transform="translate(49.000000, 20.000000)">
                <path d="M41.9961805,6.96453555 C41.9961805,5.61563279 40.8642704,4.51828294 39.4730313,4.51828294 L37.5111514,4.51828294 L37.5111514,0.347075872 L34.7075872,0.347075872 L34.7075872,21.8657799 L37.5111514,21.8657799 L37.5111514,18.7102958 C37.5134943,18.7193812 37.5165693,18.7253435 37.5181801,18.7335772 L37.5181801,7.95967428 C37.5181801,7.06617882 37.8555566,6.99718632 38.382854,6.99718632 C38.9101513,6.99718632 39.2484064,7.06617882 39.2484064,7.95967428 L39.2484064,21.8657799 L41.9961805,21.8657799 L41.9961805,6.96453555" id="Fill-1" fill="#FFFFFF"></path>
                <path d="M60.3477405,18.7464202 C60.3477405,19.6401095 60.0287694,19.709106 59.5317133,19.709106 C59.0352431,19.709106 58.7171506,19.6401095 58.7171506,18.7464202 L58.7171506,8.31800973 C58.7171506,7.42446237 59.0352431,7.3557498 59.5317133,7.3557498 C60.0287694,7.3557498 60.3477405,7.42446237 60.3477405,8.31800973 L60.3477405,18.7464202 L60.3477405,18.7464202 Z M59.5239514,4.51198633 C57.5137595,4.51198633 55.8792154,6.09691846 55.8792154,8.045147 L55.8792154,18.6799791 C55.8792154,20.6282076 57.5137595,22.2128558 59.5239514,22.2128558 C61.5332646,22.2128558 63.1678087,20.6282076 63.1678087,18.6799791 L63.1678087,8.045147 C63.1678087,6.09691846 61.5332646,4.51198633 59.5239514,4.51198633 L59.5239514,4.51198633 Z" id="Fill-2" fill="#FFFFFF"></path>
                <path d="M123.972865,4.51198633 L121.480363,4.51198633 L121.480363,18.6823715 C121.480363,18.8382402 121.469526,18.9669208 121.449463,19.0768118 L121.449463,19.181436 L121.426178,19.181436 C121.31239,19.6054842 121.019645,19.6476186 120.613991,19.6476186 C120.210534,19.6476186 119.917789,19.6054842 119.803269,19.181436 L119.768415,19.181436 L119.768415,18.9985216 C119.755967,18.9062815 119.749816,18.8025114 119.749816,18.6823715 L119.749816,4.51198633 L116.964569,4.51198633 L116.964569,19.4541706 C116.964569,20.8063137 118.09586,21.906647 119.487386,21.906647 L121.449463,21.906647 L121.449463,26.0306904 L124.253162,26.0306904 L124.253162,4.51198633 L123.972865,4.51198633" id="Fill-3" fill="#FFFFFF"></path>
                <path d="M104.22727,18.5319942 C104.22727,19.1726591 104.062369,19.388864 103.785874,19.4601279 C103.654217,19.5265651 103.487705,19.5382058 103.292636,19.5382058 C102.797054,19.5382058 102.47809,19.4692133 102.47809,18.5755759 L102.47809,8.14777112 C102.47809,7.50724816 102.642112,7.29132718 102.917874,7.22006332 C103.049531,7.15320022 103.216043,7.14198539 103.411113,7.14198539 C103.908159,7.14198539 104.22727,7.21069397 104.22727,8.10418944 L104.22727,18.5319942 L104.22727,18.5319942 Z M106.619066,0.347075872 L104.095613,0.347075872 L104.095613,4.51828294 L102.133496,4.51828294 C100.74209,4.51828294 99.6107752,5.61563279 99.6107752,6.96453555 L99.6107752,19.4199532 C99.6107752,20.7684301 100.74209,21.8657799 102.133496,21.8657799 L106.899369,21.8657799 L106.899369,0.347075872 L106.619066,0.347075872 L106.619066,0.347075872 Z" id="Fill-4" fill="#FFFFFF"></path>
                <path d="M95.447608,18.7464202 C95.447608,19.6401095 95.1093528,19.709106 94.5820555,19.709106 C94.0556368,19.709106 93.7172352,19.6401095 93.7172352,18.7464202 L93.7172352,8.31800973 C93.7172352,7.42446237 94.0549046,7.3557498 94.5820555,7.3557498 C95.1093528,7.3557498 95.447608,7.42446237 95.447608,8.31800973 L95.447608,18.7464202 L95.447608,18.7464202 Z M94.5782483,4.51198633 C92.5690712,4.51198633 90.9338784,6.09691846 90.9338784,8.045147 L90.9338784,18.6799791 C90.9338784,20.6282076 92.5690712,22.2128558 94.5782483,22.2128558 C96.5881575,22.2128558 98.2224717,20.6282076 98.2224717,18.6799791 L98.2224717,8.045147 C98.2224717,6.09691846 96.5881575,4.51198633 94.5782483,4.51198633 L94.5782483,4.51198633 Z" id="Fill-5" fill="#FFFFFF"></path>
                <path d="M54.0887607,0.73822959 C53.6065346,0.296407116 53.0061088,0.0461840321 52.3527469,0.0144414466 L52.0613808,0 L52.0613808,21.8657799 L54.8379878,21.8657799 L54.8379878,2.4774945 C54.8379878,1.80789753 54.5650406,1.17376074 54.0887607,0.73822959" id="Fill-6" fill="#FFFFFF"></path>
                <path d="M91.6940997,0.347075872 L84.6865127,0.347075872 L84.6865127,3.06489772 L86.9285598,3.06489772 L86.9285598,21.8657799 L89.7329125,21.8657799 L89.7329125,3.06489772 L91.9751061,3.06489772 L91.9751061,0.347075872 L91.6940997,0.347075872" id="Fill-7" fill="#FFFFFF"></path>
                <path d="M47.8526169,18.7464202 C47.8526169,19.6401095 47.5335378,19.709106 47.0372738,19.709106 C46.5401312,19.709106 46.2220771,19.6401095 46.2220771,18.7464202 L46.2220771,8.31800973 C46.2220771,7.42446237 46.5401312,7.3557498 47.0372738,7.3557498 C47.5335378,7.3557498 47.8526169,7.42446237 47.8526169,8.31800973 L47.8526169,18.7464202 L47.8526169,18.7464202 Z M47.0287806,4.51198633 C45.0197096,4.51198633 43.384484,6.09691846 43.384484,8.045147 L43.384484,18.6799791 C43.384484,20.6282076 45.0197096,22.2128558 47.0287806,22.2128558 C49.0378516,22.2128558 50.6730773,20.6282076 50.6730773,18.6799791 L50.6730773,8.045147 C50.6730773,6.09691846 49.0378516,4.51198633 47.0287806,4.51198633 L47.0287806,4.51198633 Z" id="Fill-8" fill="#FFFFFF"></path>
                <g id="Group-12" transform="translate(0.000000, 0.347076)">
                    <mask id="mask-4" fill="white">
                        <use xlink:href="#path-3"></use>
                    </mask>
                    <g id="Clip-10"></g>
                    <path d="M15.9324809,9.11639236 L15.9324809,7.57720758 C15.9324809,5.6237966 14.2569026,4.03464845 12.1969968,4.03464845 C10.1363402,4.03464845 8.46076198,5.6237966 8.46076198,7.57720758 L8.46076198,11.8189691 C8.46076198,13.1711116 9.62125118,14.2710173 11.047617,14.2710173 L13.0590316,14.2710173 L13.0590316,15.805647 C13.0621842,15.8642935 13.0653369,15.9260716 13.0653369,15.9941128 L13.0653369,18.5949124 C13.0653369,19.4912637 12.7248467,19.5604437 12.1954955,19.5604437 C11.6659941,19.5604437 11.3262545,19.4912637 11.3262545,18.5949124 L11.3262545,16.7012866 L8.46076198,16.7012866 L8.46076198,18.2403291 C8.46076198,20.19374 10.1363402,21.7826035 12.1969968,21.7826035 C14.2569026,21.7826035 15.9324809,20.19374 15.9324809,18.2403291 L15.9324809,13.9981405 C15.9324809,12.6461404 14.7727423,11.5462346 13.3463765,11.5462346 L11.334962,11.5462346 L11.334962,7.91855273 L11.3477228,7.91855273 L11.3477228,7.87983468 C11.3477228,6.98419511 11.6810069,6.91487272 12.2002996,6.91487272 C12.719292,6.91487272 13.0527262,6.98419511 13.0527262,7.87983468 L13.0527262,7.91855273 L13.0590316,7.91855273 L13.0590316,9.11639236 L15.9324809,9.11639236" id="Fill-9" fill="#477BE4" mask="url(#mask-4)"></path>
                    <path d="M4.59826958,8.71825125 L4.59046292,8.71825125 L4.59046292,8.7283578 C4.59046292,9.62428206 4.2570287,9.69360445 3.73788618,9.69360445 C3.21874367,9.69360445 2.88530945,9.62428206 2.88530945,8.7283578 L2.88530945,8.71825125 L2.87495062,8.71825125 L2.87495062,3.73586468 L2.88530945,3.73586468 L2.88530945,3.67266316 C2.88530945,2.77659655 3.21799303,2.7077012 3.73788618,2.7077012 C4.2570287,2.7077012 4.59046292,2.77659655 4.59046292,3.67266316 L4.59046292,3.73586468 L4.59826958,3.73586468 L4.59826958,8.71825125 L4.59826958,8.71825125 Z M4.88561451,0.0288961909 L0,0.0288961909 L0,21.6060947 L2.87495062,21.6060947 L2.87495062,12.179958 L4.88561451,12.179958 C6.31198035,12.179958 7.47261968,11.0799099 7.47261968,9.72748275 L7.47261968,2.48122908 C7.47261968,1.12908663 6.31198035,0.0288961909 4.88561451,0.0288961909 L4.88561451,0.0288961909 Z" id="Fill-11" fill="#477BE4" mask="url(#mask-4)"></path>
                </g>
                <path d="M69.0409498,18.1265849 L69.0286481,18.1265849 L69.0286481,18.7175712 C69.0286481,19.6133715 68.6902057,19.6822463 68.1629912,19.6822463 C67.6356303,19.6822463 67.2980667,19.6133715 67.2980667,18.7175712 L67.2980667,8.26410158 C67.2980667,7.36844362 67.6356303,7.29956875 68.1629912,7.29956875 C68.6902057,7.29956875 69.0286481,7.36844362 69.0286481,8.26410158 L69.0286481,8.88568307 L69.0409498,8.88568307 L69.0409498,18.1265849 L69.0409498,18.1265849 Z M68.2000427,4.51198633 C66.1907699,4.51198633 64.5561122,6.10066212 64.5561122,8.05349246 L64.5561122,19.6264634 C64.5561122,20.9782039 65.6874265,22.0782096 67.0788333,22.0782096 L69.0409498,22.0782096 L69.0409498,23.6529397 L65.0408566,23.6529397 L65.0408566,26.3777663 L69.3221308,26.3777663 C70.7135376,26.3777663 71.8447055,25.2777605 71.8447055,23.9257354 L71.8447055,8.05349246 C71.8447055,6.10066212 70.2101942,4.51198633 68.2000427,4.51198633 L68.2000427,4.51198633 Z" id="Fill-13" fill="#FFFFFF"></path>
                <path d="M29.6722778,19.6058952 C29.1512141,19.6058952 28.8165794,19.5368987 28.8165794,18.6432093 L28.8165794,8.21522481 C28.8165794,7.32153548 29.1512141,7.25253897 29.6722778,7.25253897 C30.1940736,7.25253897 30.5287083,7.32153548 30.5287083,8.21522481 L30.5287083,9.58024831 L33.3192837,9.58024831 L33.3192837,8.045147 C33.3192837,6.09691846 31.6847725,4.51198633 29.6746209,4.51198633 C27.6652016,4.51198633 26.0306904,6.09691846 26.0306904,8.045147 L26.0306904,18.6799791 C26.0306904,20.6282076 27.6652016,22.2128558 29.6746209,22.2128558 C31.6847725,22.2128558 33.3192837,20.6282076 33.3192837,18.6799791 L33.3192837,17.1450197 L30.5287083,17.1450197 L30.5287083,18.6432093 C30.5287083,19.5368987 30.1940736,19.6058952 29.6722778,19.6058952" id="Fill-14" fill="#FFFFFF"></path>
                <path d="M112.846905,18.4907369 C112.846905,18.7310202 112.820545,18.9100966 112.77251,19.0458595 L112.77251,19.1469716 L112.728429,19.1469716 C112.58198,19.4220477 112.307096,19.4540003 111.947126,19.4540003 C111.587009,19.4540003 111.312126,19.4220477 111.166556,19.1469716 L111.091428,19.1469716 L111.091428,18.9377888 C111.063603,18.8180732 111.048811,18.6719434 111.048811,18.4907369 L111.048811,12.2229216 C111.048811,12.041573 111.063603,11.8955853 111.091428,11.7758697 L111.091428,11.668367 L111.121596,11.668367 C111.25091,11.2982853 111.546004,11.2599422 111.947126,11.2599422 C112.49455,11.2599422 112.846905,11.3286757 112.846905,12.2229216 L112.846905,18.4907369 L112.846905,18.4907369 Z M113.053691,4.51198633 L108.772416,4.51198633 L108.772416,7.23093668 L112.77251,7.23093668 L112.77251,8.94955869 L110.810393,8.94955869 C109.418986,8.94955869 108.287672,10.0473068 108.287672,11.3962732 L108.287672,19.4190654 C108.287672,20.7680318 109.418986,21.8657799 110.810393,21.8657799 L115.576265,21.8657799 L115.576265,6.95912685 C115.576265,5.60973449 114.444219,4.51198633 113.053691,4.51198633 L113.053691,4.51198633 Z" id="Fill-15" fill="#FFFFFF"></path>
                <path d="M24.0143047,4.51198633 L21.5220023,4.51198633 L21.5220023,18.6823715 C21.5220023,18.8382402 21.5111662,18.9669208 21.491837,19.0768118 L21.491837,19.181436 L21.468554,19.181436 C21.3540428,19.6054842 21.0613217,19.6476186 20.6564324,19.6476186 C20.2522753,19.6476186 19.9595542,19.6054842 19.8457752,19.181436 L19.8101918,19.181436 L19.8101918,18.9985216 C19.7986235,18.9062815 19.7915947,18.8025114 19.7915947,18.6823715 L19.7915947,4.51198633 L17.0067177,4.51198633 L17.0067177,19.4541706 C17.0067177,20.8063137 18.1385042,21.906647 19.5299176,21.906647 L21.491837,21.906647 L21.491837,26.0306904 L24.295311,26.0306904 L24.295311,4.51198633 L24.0143047,4.51198633" id="Fill-16" fill="#FFFFFF"></path>
                <path d="M80.2414745,4.51198633 L77.7491722,4.51198633 L77.7491722,18.6823715 C77.7491722,18.8382402 77.7374575,18.9669208 77.7181282,19.0768118 L77.7181282,19.181436 L77.6949917,19.181436 C77.580334,19.6054842 77.2877594,19.6476186 76.8828701,19.6476186 C76.4794451,19.6476186 76.1867241,19.6054842 76.0722129,19.181436 L76.0364831,19.181436 L76.0364831,18.9985216 C76.0249148,18.9062815 76.0187646,18.8025114 76.0187646,18.6823715 L76.0187646,4.51198633 L73.233009,4.51198633 L73.233009,19.4541706 C73.233009,20.8063137 74.3649418,21.906647 75.7562089,21.906647 L77.7181282,21.906647 L77.7181282,26.0306904 L80.5216023,26.0306904 L80.5216023,4.51198633 L80.2414745,4.51198633" id="Fill-17" fill="#FFFFFF"></path>
                <path d="M41.9961805,6.96453555 C41.9961805,5.61563279 40.8642704,4.51828294 39.4730313,4.51828294 L37.5111514,4.51828294 L37.5111514,0.347075872 L34.7075872,0.347075872 L34.7075872,21.8657799 L37.5111514,21.8657799 L37.5111514,18.7102958 C37.5134943,18.7193812 37.5165693,18.7253435 37.5181801,18.7335772 L37.5181801,7.95967428 C37.5181801,7.06617882 37.8555566,6.99718632 38.382854,6.99718632 C38.9101513,6.99718632 39.2484064,7.06617882 39.2484064,7.95967428 L39.2484064,21.8657799 L41.9961805,21.8657799 L41.9961805,6.96453555" id="Fill-18" fill="#477BE4"></path>
                <path d="M60.3477405,18.7464202 C60.3477405,19.6401095 60.0287694,19.709106 59.5317133,19.709106 C59.0352431,19.709106 58.7171506,19.6401095 58.7171506,18.7464202 L58.7171506,8.31800973 C58.7171506,7.42446237 59.0352431,7.3557498 59.5317133,7.3557498 C60.0287694,7.3557498 60.3477405,7.42446237 60.3477405,8.31800973 L60.3477405,18.7464202 L60.3477405,18.7464202 Z M59.5239514,4.51198633 C57.5137595,4.51198633 55.8792154,6.09691846 55.8792154,8.045147 L55.8792154,18.6799791 C55.8792154,20.6282076 57.5137595,22.2128558 59.5239514,22.2128558 C61.5332646,22.2128558 63.1678087,20.6282076 63.1678087,18.6799791 L63.1678087,8.045147 C63.1678087,6.09691846 61.5332646,4.51198633 59.5239514,4.51198633 L59.5239514,4.51198633 Z" id="Fill-19" fill="#477BE4"></path>
                <path d="M123.972865,4.51198633 L121.480363,4.51198633 L121.480363,18.6823715 C121.480363,18.8382402 121.469526,18.9669208 121.449463,19.0768118 L121.449463,19.181436 L121.426178,19.181436 C121.31239,19.6054842 121.019645,19.6476186 120.613991,19.6476186 C120.210534,19.6476186 119.917789,19.6054842 119.803269,19.181436 L119.768415,19.181436 L119.768415,18.9985216 C119.755967,18.9062815 119.749816,18.8025114 119.749816,18.6823715 L119.749816,4.51198633 L116.964569,4.51198633 L116.964569,19.4541706 C116.964569,20.8063137 118.09586,21.906647 119.487386,21.906647 L121.449463,21.906647 L121.449463,26.0306904 L124.253162,26.0306904 L124.253162,4.51198633 L123.972865,4.51198633" id="Fill-20" fill="#477BE4"></path>
                <path d="M104.22727,18.5319942 C104.22727,19.1726591 104.062369,19.388864 103.785874,19.4601279 C103.654217,19.5265651 103.487705,19.5382058 103.292636,19.5382058 C102.797054,19.5382058 102.47809,19.4692133 102.47809,18.5755759 L102.47809,8.14777112 C102.47809,7.50724816 102.642112,7.29132718 102.917874,7.22006332 C103.049531,7.15320022 103.216043,7.14198539 103.411113,7.14198539 C103.908159,7.14198539 104.22727,7.21069397 104.22727,8.10418944 L104.22727,18.5319942 L104.22727,18.5319942 Z M106.619066,0.347075872 L104.095613,0.347075872 L104.095613,4.51828294 L102.133496,4.51828294 C100.74209,4.51828294 99.6107752,5.61563279 99.6107752,6.96453555 L99.6107752,19.4199532 C99.6107752,20.7684301 100.74209,21.8657799 102.133496,21.8657799 L106.899369,21.8657799 L106.899369,0.347075872 L106.619066,0.347075872 L106.619066,0.347075872 Z" id="Fill-21" fill="#477BE4"></path>
                <path d="M95.447608,18.7464202 C95.447608,19.6401095 95.1093528,19.709106 94.5820555,19.709106 C94.0556368,19.709106 93.7172352,19.6401095 93.7172352,18.7464202 L93.7172352,8.31800973 C93.7172352,7.42446237 94.0549046,7.3557498 94.5820555,7.3557498 C95.1093528,7.3557498 95.447608,7.42446237 95.447608,8.31800973 L95.447608,18.7464202 L95.447608,18.7464202 Z M94.5782483,4.51198633 C92.5690712,4.51198633 90.9338784,6.09691846 90.9338784,8.045147 L90.9338784,18.6799791 C90.9338784,20.6282076 92.5690712,22.2128558 94.5782483,22.2128558 C96.5881575,22.2128558 98.2224717,20.6282076 98.2224717,18.6799791 L98.2224717,8.045147 C98.2224717,6.09691846 96.5881575,4.51198633 94.5782483,4.51198633 L94.5782483,4.51198633 Z" id="Fill-22" fill="#477BE4"></path>
                <path d="M54.0887607,0.73822959 C53.6065346,0.296407116 53.0061088,0.0461840321 52.3527469,0.0144414466 L52.0613808,0 L52.0613808,21.8657799 L54.8379878,21.8657799 L54.8379878,2.4774945 C54.8379878,1.80789753 54.5650406,1.17376074 54.0887607,0.73822959" id="Fill-23" fill="#477BE4"></path>
                <path d="M91.6940997,0.347075872 L84.6865127,0.347075872 L84.6865127,3.06489772 L86.9285598,3.06489772 L86.9285598,21.8657799 L89.7329125,21.8657799 L89.7329125,3.06489772 L91.9751061,3.06489772 L91.9751061,0.347075872 L91.6940997,0.347075872" id="Fill-24" fill="#477BE4"></path>
                <path d="M47.8526169,18.7464202 C47.8526169,19.6401095 47.5335378,19.709106 47.0372738,19.709106 C46.5401312,19.709106 46.2220771,19.6401095 46.2220771,18.7464202 L46.2220771,8.31800973 C46.2220771,7.42446237 46.5401312,7.3557498 47.0372738,7.3557498 C47.5335378,7.3557498 47.8526169,7.42446237 47.8526169,8.31800973 L47.8526169,18.7464202 L47.8526169,18.7464202 Z M47.0287806,4.51198633 C45.0197096,4.51198633 43.384484,6.09691846 43.384484,8.045147 L43.384484,18.6799791 C43.384484,20.6282076 45.0197096,22.2128558 47.0287806,22.2128558 C49.0378516,22.2128558 50.6730773,20.6282076 50.6730773,18.6799791 L50.6730773,8.045147 C50.6730773,6.09691846 49.0378516,4.51198633 47.0287806,4.51198633 L47.0287806,4.51198633 Z" id="Fill-25" fill="#477BE4"></path>
                <path d="M69.0409498,18.1265849 L69.0286481,18.1265849 L69.0286481,18.7175712 C69.0286481,19.6133715 68.6902057,19.6822463 68.1629912,19.6822463 C67.6356303,19.6822463 67.2980667,19.6133715 67.2980667,18.7175712 L67.2980667,8.26410158 C67.2980667,7.36844362 67.6356303,7.29956875 68.1629912,7.29956875 C68.6902057,7.29956875 69.0286481,7.36844362 69.0286481,8.26410158 L69.0286481,8.88568307 L69.0409498,8.88568307 L69.0409498,18.1265849 L69.0409498,18.1265849 Z M68.2000427,4.51198633 C66.1907699,4.51198633 64.5561122,6.10066212 64.5561122,8.05349246 L64.5561122,19.6264634 C64.5561122,20.9782039 65.6874265,22.0782096 67.0788333,22.0782096 L69.0409498,22.0782096 L69.0409498,23.6529397 L65.0408566,23.6529397 L65.0408566,26.3777663 L69.3221308,26.3777663 C70.7135376,26.3777663 71.8447055,25.2777605 71.8447055,23.9257354 L71.8447055,8.05349246 C71.8447055,6.10066212 70.2101942,4.51198633 68.2000427,4.51198633 L68.2000427,4.51198633 Z" id="Fill-30" fill="#477BE4"></path>
                <path d="M29.6722778,19.6058952 C29.1512141,19.6058952 28.8165794,19.5368987 28.8165794,18.6432093 L28.8165794,8.21522481 C28.8165794,7.32153548 29.1512141,7.25253897 29.6722778,7.25253897 C30.1940736,7.25253897 30.5287083,7.32153548 30.5287083,8.21522481 L30.5287083,9.58024831 L33.3192837,9.58024831 L33.3192837,8.045147 C33.3192837,6.09691846 31.6847725,4.51198633 29.6746209,4.51198633 C27.6652016,4.51198633 26.0306904,6.09691846 26.0306904,8.045147 L26.0306904,18.6799791 C26.0306904,20.6282076 27.6652016,22.2128558 29.6746209,22.2128558 C31.6847725,22.2128558 33.3192837,20.6282076 33.3192837,18.6799791 L33.3192837,17.1450197 L30.5287083,17.1450197 L30.5287083,18.6432093 C30.5287083,19.5368987 30.1940736,19.6058952 29.6722778,19.6058952" id="Fill-31" fill="#477BE4"></path>
                <path d="M112.846905,18.4907369 C112.846905,18.7310202 112.820545,18.9100966 112.77251,19.0458595 L112.77251,19.1469716 L112.728429,19.1469716 C112.58198,19.4220477 112.307096,19.4540003 111.947126,19.4540003 C111.587009,19.4540003 111.312126,19.4220477 111.166556,19.1469716 L111.091428,19.1469716 L111.091428,18.9377888 C111.063603,18.8180732 111.048811,18.6719434 111.048811,18.4907369 L111.048811,12.2229216 C111.048811,12.041573 111.063603,11.8955853 111.091428,11.7758697 L111.091428,11.668367 L111.121596,11.668367 C111.25091,11.2982853 111.546004,11.2599422 111.947126,11.2599422 C112.49455,11.2599422 112.846905,11.3286757 112.846905,12.2229216 L112.846905,18.4907369 L112.846905,18.4907369 Z M113.053691,4.51198633 L108.772416,4.51198633 L108.772416,7.23093668 L112.77251,7.23093668 L112.77251,8.94955869 L110.810393,8.94955869 C109.418986,8.94955869 108.287672,10.0473068 108.287672,11.3962732 L108.287672,19.4190654 C108.287672,20.7680318 109.418986,21.8657799 110.810393,21.8657799 L115.576265,21.8657799 L115.576265,6.95912685 C115.576265,5.60973449 114.444219,4.51198633 113.053691,4.51198633 L113.053691,4.51198633 Z" id="Fill-32" fill="#477BE4"></path>
                <path d="M24.0143047,4.51198633 L21.5220023,4.51198633 L21.5220023,18.6823715 C21.5220023,18.8382402 21.5111662,18.9669208 21.491837,19.0768118 L21.491837,19.181436 L21.468554,19.181436 C21.3540428,19.6054842 21.0613217,19.6476186 20.6564324,19.6476186 C20.2522753,19.6476186 19.9595542,19.6054842 19.8457752,19.181436 L19.8101918,19.181436 L19.8101918,18.9985216 C19.7986235,18.9062815 19.7915947,18.8025114 19.7915947,18.6823715 L19.7915947,4.51198633 L17.0067177,4.51198633 L17.0067177,19.4541706 C17.0067177,20.8063137 18.1385042,21.906647 19.5299176,21.906647 L21.491837,21.906647 L21.491837,26.0306904 L24.295311,26.0306904 L24.295311,4.51198633 L24.0143047,4.51198633" id="Fill-33" fill="#477BE4"></path>
                <path d="M80.2414745,4.51198633 L77.7491722,4.51198633 L77.7491722,18.6823715 C77.7491722,18.8382402 77.7374575,18.9669208 77.7181282,19.0768118 L77.7181282,19.181436 L77.6949917,19.181436 C77.580334,19.6054842 77.2877594,19.6476186 76.8828701,19.6476186 C76.4794451,19.6476186 76.1867241,19.6054842 76.0722129,19.181436 L76.0364831,19.181436 L76.0364831,18.9985216 C76.0249148,18.9062815 76.0187646,18.8025114 76.0187646,18.6823715 L76.0187646,4.51198633 L73.233009,4.51198633 L73.233009,19.4541706 C73.233009,20.8063137 74.3649418,21.906647 75.7562089,21.906647 L77.7181282,21.906647 L77.7181282,26.0306904 L80.5216023,26.0306904 L80.5216023,4.51198633 L80.2414745,4.51198633" id="Fill-34" fill="#477BE4"></path>
            </g>
            <g id="icon-verified" transform="translate(5.000000, 9.000000)">
                <g id="circle_1_" fill="#FFFFFF" stroke="#DDDDDD" stroke-width="0.68859853">
                    <circle id="circle" cx="18.9706227" cy="18.9706227" r="18.8910176"></circle>
                </g>
                <g id="hand-drawn" transform="translate(8.263182, 9.640379)" fill="#FF5754" fill-rule="nonzero">
                    <path d="M0.385191739,15.1866047 C0.637833908,16.4418588 0.445344637,17.549436 2.28000799,18.6754728 C2.67100183,18.9154478 3.10410267,19.1800357 3.80187629,19.4015511 C4.68010859,19.6784454 6.5328178,18.3124336 8.18100719,16.6818339 C11.3931719,13.5067794 12.9030096,11.8208008 12.9030096,11.8208008 C13.8113183,10.8178282 15.0264069,9.52565485 16.8189632,7.55047561 C18.0761587,6.16600417 19.5077977,4.77537953 19.8807456,4.14775248 C19.8807456,4.14775248 20.2657242,3.70472161 20.4882899,2.87403875 C20.614611,2.40639507 20.6446874,1.83414687 20.614611,1.32343074 C20.5905498,0.794254989 20.5243816,0.222006794 20.1454184,0.0927894604 C18.8942381,-0.325628573 16.6324892,2.07412192 16.3918776,2.35716941 C16.1813425,2.60945086 9.04720889,9.83331517 8.13288486,10.7686025 C8.07273198,10.8301346 7.40503481,11.4454553 7.33886663,11.5008341 C6.64710832,12.0484695 5.66060081,13.346796 5.21546935,9.18107529 C5.02899538,7.40895185 4.77635323,6.12908494 3.70563165,6.02448043 C1.90104474,5.85219065 0.740093832,7.59970126 0.349100002,8.28270717 C-0.0659549873,9.00878551 -0.01181738,9.88254083 0.0964578345,12.2638317 C0.156610731,13.765214 0.150595442,14.0359551 0.385191739,15.1866047 Z" id="Shape"></path>
                </g>
            </g>
        </g>
    </g>
</svg>